<?xml version="1.0" encoding="utf-8"?>
<!-- Generator: Adobe Illustrator 23.0.2, SVG Export Plug-In . SVG Version: 6.00 Build 0)  -->
<svg version="1.1" id="Capa_1" xmlns="http://www.w3.org/2000/svg" xmlns:xlink="http://www.w3.org/1999/xlink" x="0px" y="0px"
	 viewBox="0 0 66.96 67.68" style="enable-background:new 0 0 66.96 67.68;" xml:space="preserve">
<style type="text/css">
	.st0{fill:#58B46F;}
</style>
<path class="st0" d="M32.04,60.13c0.06-1.82,0.15-3.64,0.17-5.46c0-0.34-0.17-0.75-0.4-1c-1.07-1.15-2.27-2.14-3.73-2.85
	c-0.13,0.15-0.25,0.28-0.35,0.42c-1.33,1.83-3.05,2.39-5.2,1.68c-2.3-0.76-4.13-2.26-5.83-3.91c-1.13-1.1-2.17-2.3-3.33-3.54
	c2.44-0.96,4.75-1.72,7.19-1.92c1.44-0.12,2.93-0.08,4.34,0.19c2.42,0.47,4.04,2.48,4.09,4.85c-3.06-2.09-6.44-2.72-10.03-2.55
	c4.75,1.26,9.22,3.11,13.3,6.22c0.24-5.92-0.55-11.49-2.52-16.97c-0.63,0.33-1.16,0.64-1.71,0.9c-3.48,1.67-6.56,1.15-9.27-1.6
	c-2.21-2.24-3.53-5.02-4.63-7.91c-2.2-5.79-3.34-11.82-4.08-17.95c-0.02-0.12,0-0.25,0-0.5c1.34,0.32,2.62,0.6,3.9,0.93
	c4.75,1.24,9.39,2.8,13.58,5.42c2.83,1.77,5.25,3.94,6.63,7.08c1.51,3.45,0.97,8.07-1.31,11.08c-3.02-6.9-6.83-13.09-14.24-16.12
	c0.06,0.08,0.11,0.18,0.19,0.23c4.41,3.03,7.51,7.15,9.96,11.82c2.49,4.73,4.15,9.75,5.27,14.96c0.06,0.26,0.14,0.52,0.22,0.83
	c4.85-6.87,10.33-12.93,18.02-16.58c-1.44-0.25-5.03,1.03-7.56,2.7c-2.31,1.52-4.25,3.44-6.09,5.72c-0.6-3.03-0.18-5.66,1.76-7.93
	c1.81-2.12,4.26-3.16,6.89-3.81c4.03-1,8.13-1.04,12.24-0.75c0.07,0,0.13,0.05,0.25,0.1c-0.04,0.15-0.05,0.3-0.11,0.43
	c-2.04,4.3-4.37,8.42-7.66,11.92c-1.37,1.45-2.9,2.66-4.81,3.35c-1,0.3-1.43,0.23-1.79,0.25c-1.82,0.06-3.25-0.78-4.62-2.07
	c-0.78,1-1.55,1.95-2.27,2.93c-1.65,2.25-2.84,4.74-3.77,7.36c-0.1,0.28,0.06,0.65,0.09,0.97c0.14,1.66,0.31,3.32,0.4,4.98
	c0.1,1.82,0.13,3.64,0.19,5.46l0.03-0.02c-0.78,0.2-1.55,0.42-2.34,0.59c-0.35,0.07-0.72,0.02-1.07,0.03L32.04,60.13z"/>
</svg>
