<?xml version="1.0" encoding="utf-8"?>
<!-- Generator: Adobe Illustrator 23.0.2, SVG Export Plug-In . SVG Version: 6.00 Build 0)  -->
<svg version="1.1" id="Capa_1" xmlns="http://www.w3.org/2000/svg" xmlns:xlink="http://www.w3.org/1999/xlink" x="0px" y="0px"
	 viewBox="0 0 251.22 260.96" style="enable-background:new 0 0 251.22 260.96;" xml:space="preserve">
<style type="text/css">
	.st0{fill:#58B46F;}
</style>
<path class="st0" d="M39.13,193.64c0-13.74,0.03-27.01-0.02-40.28c-0.01-3.04,1.96-2.5,3.74-2.31c12.88,1.35,25.75,2.73,39.86,4.23
	c-3.11,2.78-5.39,5.09-7.95,7.03c-2.18,1.65-2.61,2.76-0.42,4.92c20.4,20.11,40.81,40.21,64.86,56.08c3.43,2.26,3.95,3.48,0.39,6.14
	c-5.99,4.48-11.72,9.33-17.35,14.25c-2.29,2-3.77,2.14-6.24,0.15c-21.79-17.58-42.74-36.09-62.23-56.2
	c-2.8-2.89-4.63-3.51-7.48-0.35C44.19,189.63,41.6,191.49,39.13,193.64z"/>
<path class="st0" d="M124.01,53.91c0.6,13.14,1.13,26.11,1.84,39.06c0.16,2.92-0.74,3.73-3.64,3.57c-12.95-0.71-25.91-1.2-39.3-1.8
	c1.7-3.52,4.69-5.64,7.24-8c2.38-2.22,2.06-3.37-0.27-5.36c-18.69-15.99-51.77-18.4-72.57-5.17c-1.06,0.68-1.92,1.89-3.46,1.6
	c3.14-10.21,15.52-20.57,24.47-24.68c25.72-11.82,50.04-9.53,72.46,8.12c2.33,1.83,3.45,1.54,5.2-0.37
	c2.23-2.44,4.72-4.66,7.11-6.96C123.17,53.84,123.39,53.91,124.01,53.91z"/>
<path class="st0" d="M215.2,65.05c9.83,8.98,14.16,20.71,15.95,33.41c3.11,22.02-2.57,41.57-17.91,57.97
	c-2.32,2.48-2.63,4.13,0.24,6.31c2.46,1.88,4.58,4.22,7.3,6.78c-5.88,1.87-11.37,1.31-16.69,1.89c-7.61,0.82-15.27,1.14-22.9,1.73
	c-1.99,0.15-3.6,0.27-3.59-2.58c0.08-13.24,0.03-26.47,0.03-41.14c3.88,3.54,6.53,5.97,9.19,8.39c1.11,1.01,2.09,2.16,3.7,0.45
	c16.72-17.75,28.97-37.36,26.75-63.14c-0.3-3.47-2.22-6.6-2.01-10.16L215.2,65.05z"/>
<path class="st0" d="M203.44,109.01c-4.44-23.14-10.65-30.22-28.3-33.38c-18.03-3.23-29.76,7.4-42.01,19.7
	c-0.63-12.71-1.18-24.21-1.77-35.72c-0.1-1.89,1.26-2.58,2.52-3.36c18.49-11.35,38.08-13.32,58.42-6.18
	c10.57,3.71,18.94,19.22,18.42,32.48C210.36,91.67,207.98,100.21,203.44,109.01z"/>
<path class="st0" d="M58.6,75.72c-8.32,3.27-15.52,7.56-19.78,15.78c-6.88,13.25-5.2,30.31,4.39,41.72
	c3.09,3.67,6.29,7.25,10.27,11.83c-6.43-0.71-11.76-1.14-17.04-1.93c-3.23-0.48-4.5,0.32-4.34,3.78c0.24,5.32,0.06,10.65,0.06,15.88
	c-0.56,0.23-1.01,0.52-1.09,0.43C18.17,150.63,8.17,136.54,6.05,117.9C3.39,94.59,16.82,77.77,40.58,75.06
	C46.58,74.38,52.52,74.63,58.6,75.72z"/>
<path class="st0" d="M170.69,160.76c0,5.69,0.21,10.79-0.07,15.87c-0.19,3.52,0.87,4.75,4.45,4.3c5.27-0.67,10.59-0.98,15.88-1.43
	c0.9,1.37-0.4,1.8-0.97,2.4c-12.26,12.96-25.23,25.19-38.43,37.18c-2.01,1.83-3.41,1.93-5.52,0.39c-6.19-4.51-12.47-8.9-18.76-13.27
	c-2.1-1.46-2.58-2.54-0.31-4.49c14.58-12.46,28.35-25.78,41.7-39.55C169.06,161.74,169.63,161.48,170.69,160.76z"/>
<path class="st0" d="M215.28,64.95c-0.22-0.07-0.44-0.13-0.66-0.2c0.59-0.67,0.45,0.07,0.58,0.3
	C215.2,65.05,215.28,64.95,215.28,64.95z"/>
</svg>
