<?xml version="1.0" encoding="utf-8"?>
<!-- Generator: Adobe Illustrator 23.0.2, SVG Export Plug-In . SVG Version: 6.00 Build 0)  -->
<svg version="1.1" id="Capa_1" xmlns="http://www.w3.org/2000/svg" xmlns:xlink="http://www.w3.org/1999/xlink" x="0px" y="0px"
	 viewBox="0 0 134.64 164.88" style="enable-background:new 0 0 134.64 164.88;" xml:space="preserve">
<style type="text/css">
	.st0{fill:#B9E0F8;}
	.st1{fill:#A6D0E6;}
	.st2{fill:#5EB56C;}
	.st3{fill:#E0F1FC;}
	.st4{fill:#FEFEFE;}
	.st5{fill:#415140;}
</style>
<path class="st0" d="M9.01,139.73c-3.02-0.92-1.85-3.13-1.35-4.91c2.72-9.74,6.28-19.31,8.14-29.2c2.12-11.25,4.53-22.42,7.44-33.47
	c1.98-7.51,5.33-14.67,7.14-22.21c1.36-5.67,2.57-11.26,5.36-16.43c1.5-2.78,2.98-4.42,6.66-3.14c2.4,0.83,5.28,0.34,7.94,0.32
	c2.08-0.01,3.64,0.48,3.86,2.87c-0.69,3.4-0.68,6.98-2.56,10.33c-1.2-2.37,0.43-4.58-0.54-8.09c-2.64,10.5-10.59,17.8-9.05,28.21
	c2.81-3.79,2.43-8.92,5.71-12.53c-0.86,5.71-4.06,11.08-2.15,17.25c0.48-1.09,0.92-2.06,1.35-3.03c-0.18,3.26,0.88,4.49,4.56,5.31
	c6.08,1.35,12.08,1.84,18.19,1.56c3.63-0.16,6.77,1.46,10.11,2.3c2.36,0.59,3.07,0.04,3.85-2.1c2.49-6.79,2.56-13.93,3.38-20.96
	c0.34-2.94,0.08-5.94,1.01-8.84c0.75-2.33-0.25-5.58,3.39-6.34c4.88-1.01,9.57,0.98,11.76,4.92c-1.8,5.36-3.56,10.77-3.01,16.52
	c1.07,11.04-2.3,21.74-2.39,32.74c-0.04,5.02-0.06,10.27-0.96,15.35c-2.62,14.86-7.77,29.04-11.5,43.6
	c-0.48,1.88-1.06,2.84-3.18,2.94c-12.87,0.64-25.02-1.62-36.54-7.69C34.16,138.97,21.88,137.01,9.01,139.73z M94.22,73.27
	c-7.27,12.91-11.32,26.59-17.42,39.37c-1.89,3.97-4.2,7.33-7.84,9.94c-4.97,3.57-9.7,7.49-14.45,11.35
	c-0.97,0.78-2.39,1.65-1.86,3.23c0.51,1.51,2.04,1.33,3.36,1.57c7.47,1.34,15.18,1.64,22.19,4.99c2.21,1.06,2.69,0.4,3.11-1.86
	c1.02-5.52,1.72-11.18,4.03-16.35C92.69,108.99,94.37,91.58,94.22,73.27z M36.81,63.52c-3.98,3.84-5.81,8.2-5.77,13.74
	c0.05,6.51,1.99,13.53-2.42,19.36c-3.01,3.99-2.19,6.69,1.41,9.5c2.47,1.93,4.67,5.2,5.43-1.21c0.23-1.93,1.97-3.79,3.32-5.44
	c3.39-4.12,3.88-8.21,1.86-13.34C37.82,79.01,34.11,71.81,36.81,63.52z M71.09,101.86c-7.24,1.08-14.35,0.7-21.45,0.87
	c-2.91,0.07-5.39,1.59-7.49,3.53c-2.74,2.53-2.16,8.46,0.89,10.6c1.15,0.81,1.62,0.34,2.19-0.77c2.6-5.02,7.09-6.79,12.43-7.58
	C62.72,107.78,67.43,105.84,71.09,101.86z M41.36,129.3c-0.59-9.04-6.5-14.75-13.85-19.42c-1.03-0.66-2.35-1.78-3.62-0.7
	c-1.37,1.16-0.01,2.4,0.33,3.6c2.13,7.47,7.55,12.65,12.5,18.18c1.07,1.19,1.65,3.58,3.38,3.14
	C42.14,133.59,40.79,131.22,41.36,129.3z M80.8,82.11c-1.06,0.44-1.76,0.57-2.25,0.96c-5.4,4.35-11.38,6.92-18.4,7.84
	c-4.18,0.55-7.88,3.4-10.35,7.51c7.1-2.78,14.68-2.17,21.86-3.83C78.25,93.05,81.39,88.71,80.8,82.11z M33.61,56.44
	c3.09-2.74,5.51-5.16,7.72-7.86c2.58-3.15,5.92-5.68,6.53-10.15c0.29-2.16,0.06-2.73-2.23-1.98C36.26,39.53,32.48,45.46,33.61,56.44
	z M29.04,133.99c-5.07-6.59-8.43-12.41-11-18.83c-0.92,5.11-2.45,9.87-4.34,14.53c-0.73,1.81-0.24,2.91,1.84,2.96
	C19.58,132.74,23.63,132.42,29.04,133.99z M90.27,64.94c0.45,0.08,0.9,0.15,1.36,0.23c4.37-5.99,1.58-13.38,3.39-19.89
	c0.33-1.2-1.04-1.46-2.05-0.7c-1.53,1.16-2.58,2.8-2.63,4.62C90.16,54.44,90.27,59.7,90.27,64.94z M98.94,45.25
	c-2.84,8.36-1.29,16.97-0.99,25.5C100.17,62.35,98.29,53.73,98.94,45.25z M57.1,86.87c1.35-0.34,2.78-0.69,4.21-1.05
	c1.06-0.27,2.68-0.01,2.62-1.61c-0.08-1.87-1.86-2.36-3.28-2.35c-2.11,0.01-4.22,0.54-6.33,0.84c-0.92,0.13-2.2-0.33-2.55,0.89
	c-0.4,1.39,0.84,2.14,1.81,2.6C54.59,86.65,55.81,86.64,57.1,86.87z"/>
<path class="st1" d="M9.01,139.73c12.86-2.73,25.15-0.77,36.65,5.3c11.52,6.07,23.67,8.33,36.54,7.69c2.13-0.11,2.7-1.06,3.18-2.94
	c3.72-14.56,8.88-28.74,11.5-43.6c0.9-5.08,0.91-10.33,0.96-15.35c0.09-11,3.46-21.7,2.39-32.74c-0.55-5.74,1.21-11.16,3.01-16.52
	c2.13,1.09,1.87,2.64,1.24,4.63c-1.68,5.25-1.9,10.71-2.35,16.18c-1.95,23.9-1.76,48.1-9.17,71.31c-1.92,6.01-4.02,11.97-5.51,18.09
	c-0.78,3.18-2.36,3.75-5.22,3.91c-11.75,0.66-23.1-1.59-33.26-7.02c-11.39-6.08-23.19-7.54-35.63-6.98
	C11.64,141.78,9.47,142.53,9.01,139.73z"/>
<path class="st2" d="M117.36,21.15c3.64,0.22,6.75-2.18,10.44-2.04c2.55,0.1,3.52,0.73,2.24,3.15c-3.77,7.08-9.16,12.18-17.33,13.61
	c-2.05,0.36-4.61,1-3.4-3c0.79-2.61-0.31-3.61-2.73-1.64c-2.5,2.04-2.74-0.12-3.02-1.72c-1.21-6.88,1.03-12.63,5.91-17.92
	c4.49,5.08,2.24,10.31,0.91,16.01c2.94-1.59,4.92-3.08,6.07-5.51l-0.08,0.06c0.74,0.03,1.52,0.1,1.06-1.07L117.36,21.15z"/>
<path class="st1" d="M46.98,65.71c-0.43,0.97-0.87,1.95-1.35,3.03c-1.9-6.17,1.29-11.54,2.15-17.25c-3.29,3.61-2.9,8.74-5.71,12.53
	c-1.55-10.41,6.4-17.71,9.05-28.21c0.97,3.51-0.66,5.72,0.54,8.09c1.88-3.35,1.87-6.94,2.56-10.33c2.99,7.53,0.09,14.14-3.39,20.55
	C48.83,57.8,47.02,61.44,46.98,65.71z M49.69,48.98c0.15-0.29,0.4-0.54,0.39-0.8c0-0.25-0.25-0.5-0.39-0.75
	c-0.14,0.25-0.39,0.5-0.39,0.76C49.29,48.44,49.54,48.69,49.69,48.98z"/>
<path class="st2" d="M116.44,22.09c-3.53-3.19-2.89-6.13,2.33-9.54c1.76,3.31-1,5.8-1.4,8.6c0,0,0.06-0.07,0.06-0.07
	c-1.02-0.31-1.23,0.19-1.06,1.07L116.44,22.09z"/>
<path class="st1" d="M94.22,73.27c0.15,18.31-1.53,35.72-8.89,52.23c-2.31,5.17-3.01,10.83-4.03,16.35
	c-0.42,2.26-0.89,2.92-3.11,1.86c-7-3.35-14.72-3.65-22.19-4.99c-1.32-0.24-2.85-0.05-3.36-1.57c-0.53-1.57,0.9-2.44,1.86-3.23
	c4.76-3.86,9.48-7.78,14.45-11.35c3.64-2.61,5.95-5.96,7.84-9.94C82.89,99.86,86.95,86.18,94.22,73.27z"/>
<path class="st3" d="M36.81,63.52c-2.7,8.29,1.01,15.48,3.83,22.61c2.02,5.12,1.53,9.22-1.86,13.34c-1.35,1.64-3.1,3.51-3.32,5.44
	c-0.76,6.41-2.95,3.14-5.43,1.21c-3.6-2.81-4.42-5.51-1.41-9.5c4.41-5.83,2.47-12.85,2.42-19.36C31,71.72,32.82,67.36,36.81,63.52z"
	/>
<path class="st3" d="M71.09,101.86c-3.66,3.97-8.36,5.91-13.43,6.66c-5.35,0.79-9.84,2.56-12.43,7.58
	c-0.57,1.11-1.03,1.58-2.19,0.77c-3.05-2.14-3.63-8.07-0.89-10.6c2.1-1.94,4.58-3.46,7.49-3.53
	C56.74,102.56,63.85,102.95,71.09,101.86z"/>
<path class="st3" d="M41.36,129.3c-0.57,1.92,0.78,4.29-1.25,4.79c-1.73,0.43-2.31-1.95-3.38-3.14
	c-4.95-5.53-10.38-10.71-12.5-18.18c-0.34-1.2-1.7-2.44-0.33-3.6c1.27-1.08,2.59,0.04,3.62,0.7
	C34.86,114.55,40.77,120.26,41.36,129.3z"/>
<path class="st3" d="M80.8,82.11c0.59,6.6-2.54,10.94-9.14,12.47c-7.18,1.66-14.76,1.05-21.86,3.83c2.47-4.1,6.17-6.96,10.35-7.51
	c7.03-0.92,13-3.49,18.4-7.84C79.04,82.68,79.73,82.55,80.8,82.11z"/>
<path class="st3" d="M33.61,56.44c-1.13-10.98,2.65-16.91,12.02-19.98c2.29-0.75,2.52-0.18,2.23,1.98c-0.61,4.47-3.95,7-6.53,10.15
	C39.12,51.28,36.7,53.69,33.61,56.44z"/>
<path class="st1" d="M29.04,133.99c-5.41-1.56-9.46-1.24-13.5-1.34c-2.08-0.05-2.57-1.16-1.84-2.96c1.89-4.66,3.41-9.42,4.34-14.53
	C20.61,121.58,23.97,127.4,29.04,133.99z"/>
<path class="st3" d="M90.27,64.94c0-5.25-0.11-10.5,0.06-15.74c0.06-1.83,1.11-3.47,2.63-4.62c1-0.76,2.38-0.49,2.05,0.7
	c-1.81,6.51,0.99,13.9-3.39,19.89C91.17,65.1,90.72,65.02,90.27,64.94z"/>
<path class="st1" d="M98.94,45.25c-0.65,8.48,1.23,17.11-0.99,25.5C97.64,62.22,96.1,53.61,98.94,45.25z"/>
<path class="st3" d="M57.1,86.87c-1.29-0.23-2.51-0.22-3.51-0.69c-0.97-0.46-2.21-1.21-1.81-2.6c0.35-1.22,1.63-0.76,2.55-0.89
	c2.11-0.3,4.22-0.83,6.33-0.84c1.42-0.01,3.2,0.49,3.28,2.35c0.07,1.6-1.56,1.35-2.62,1.61C59.88,86.18,58.45,86.53,57.1,86.87z"/>
<path class="st4" d="M116.36,22.15c-0.17-0.88,0.04-1.38,1.06-1.07C117.88,22.24,117.1,22.17,116.36,22.15z"/>
<path class="st0" d="M49.69,48.98c-0.15-0.29-0.39-0.54-0.39-0.8c0-0.25,0.25-0.5,0.39-0.76c0.14,0.25,0.39,0.5,0.39,0.75
	C50.08,48.44,49.84,48.69,49.69,48.98z"/>
<path class="st2" d="M52.66,124.19c-8.45-1.57-16.9-3.16-25.48-3.84c-1.79-0.14-2.44-0.62-1.89-2.55
	c2.01-7.04,1.98-14.39,3.06-21.58c0.2-1.3,0.38-2.6,0.61-3.9c0.69-3.9,0.7-3.91,4.53-3.39c16.66,2.28,33.07,5.9,49.55,9.15
	c1.82,0.36,2.58,0.95,2.02,3.08c-2.17,8.26-2.67,16.81-4,25.21c-0.32,2.05-0.99,2.43-2.98,2.08
	C69.63,126.92,61.14,125.59,52.66,124.19z M48.83,103.6L48.83,103.6c1.1,0.04,1.97-0.58,3.09-1.3c-0.26,1.56-0.46,2.76-0.65,3.97
	c-0.1,0.62-0.24,1.35,0.62,1.46c1.65,0.21,3.36,1.07,4.91-0.45c0.75-0.73,1.59-0.53,2.01,0.43c0.24,0.55,0.14,1.24,1.02,1.24
	c1.09,0,0.61-1.08,1.06-1.52c0.18,0.32,0.37,0.64,0.55,0.97c0.57,1.1,1.52,1.52,2.69,1.39c1.01-0.1,1.73-0.68,2.03-1.66
	c0.35-1.16-0.35-1.89-1.18-2.53c-0.24-0.19-0.48-0.39-0.71-0.6c-0.34-0.32-0.68-0.68-0.46-1.2c0.25-0.57,0.73-0.45,1.18-0.29
	c0.52,0.19,1.22,0.43,1.41-0.18c0.2-0.65-0.48-1.06-1.05-1.34c-1.02-0.49-1.96-0.4-2.72,0.47c-0.77,0.88-0.73,1.86-0.05,2.76
	c0.36,0.48,0.9,0.84,1.37,1.24c0.41,0.34,1.05,0.7,0.63,1.27c-0.45,0.61-1.21,0.37-1.61-0.1c-0.68-0.81-1.28-1.09-2.05-0.18
	c-0.71-1.58-0.44-3.3-0.62-4.95c-0.08-0.71-0.05-1.35-1.02-1.52c-0.88-0.15-1.3,0.22-1.61,0.92c-0.56,1.27-1.06,2.58-1.73,3.79
	c-0.27,0.49-0.08,1.66-1.38,1.24c-1.14-0.37-1.68-0.89-1.38-2.16c0.29-1.2,0.45-2.43,0.62-3.66c0.13-0.96-0.76-1.56-1.15-0.95
	c-1.02,1.58-1.26-0.02-1.88-0.19c-1.04-0.29-2.45-2.04-3.04,0.52c-0.46,1.23-0.61,2.51-0.67,3.81c-0.14,0.57-0.3,1.14-0.41,1.72
	c-0.08,0.41,0.11,0.75,0.51,0.87c0.53,0.16,1.06,0.21,1.11-0.59c0.1-0.61,0.2-1.23,0.29-1.84C48.64,104.18,48.73,103.89,48.83,103.6
	z M37.42,101.24c-1.15-0.79-0.97-2.19-1.52-3.25c-0.17-0.33-0.25-0.78-0.74-0.74c-0.52,0.04-0.5,0.51-0.57,0.86
	c-0.21,1.13-0.52,2.27-0.56,3.41c-0.03,0.98-1.2,2.43,0.02,2.81c1.02,0.32,0.31-1.7,1.22-2.3c0.74,0.49,0.61,1.36,0.91,2.02
	c0.23,0.5,0.4,1.07,1.06,1.04c0.94-0.04,0.7-0.82,0.79-1.38c0.28-1.98,0.99-3.94,0.55-6.64C37.54,98.73,37.65,100.04,37.42,101.24z
	 M59.01,118c0.61,0.82,0.85,1.62,1.61,1.96c1.28,0.58,2.48,0.45,3.3-0.72c0.91-1.28,0.28-2.31-0.8-3.19
	c-0.58-0.47-1.54-0.88-1.26-1.75c0.32-0.96,1.18-0.19,1.81-0.22c0.29-0.01,0.7,0.06,0.74-0.35c0.02-0.26-0.1-0.62-0.28-0.8
	c-1.04-0.98-2.28-1.23-3.27-0.13c-1.04,1.14-0.84,2.38,0.38,3.43c0.64,0.55,2.14,1.04,1.44,1.95c-0.88,1.14-1.61-0.4-2.41-0.81
	c-0.5-0.25-1.04-0.32-0.97-1.05c0.09-0.94-0.44-1.25-1.27-1.19c-1.17,0.09-0.85,0.76-0.58,1.47c0.18,0.47,0.05,0.97-0.5,1.1
	c-0.53,0.12-0.82-0.27-1.03-0.72c-0.75-1.63,0.38-3.67,2.22-3.91c0.55-0.07,1.21,0.02,1.27-0.66c0.07-0.8-0.7-0.95-1.28-1.03
	c-1.2-0.17-2.12,0.44-2.72,1.41c-0.7,1.14-1.04,2.39-0.93,3.76c0.11,1.24,0.5,2.25,1.76,2.75C57.55,119.82,58.24,118.95,59.01,118z
	 M53.63,117.34c-0.12-1.81-0.25-3.74-0.36-5.67c-0.03-0.6-0.19-1.06-0.87-1.15c-0.66-0.09-1.21-0.05-1.52,0.68
	c-0.8,1.84-1.64,3.67-2.47,5.51c-0.15,0.34-0.41,0.71,0.08,0.98c0.39,0.21,0.72,0.08,1-0.27c1.15-1.44,1.98-1.2,2.55,0.48
	c0.19,0.56,0.68,0.63,1.14,0.53C53.63,118.32,53.6,117.85,53.63,117.34z M43.89,113.31C43.89,113.31,43.88,113.3,43.89,113.31
	c-0.1,0.53-0.19,1.06-0.27,1.6c-0.31,2.03,0.3,2.64,2.31,2.38c1.71-0.22,2.16-1.36,2.02-2.81c-0.08-0.84-0.26-1.6,0.01-2.47
	c0.51-1.66-0.7-2.16-1.98-2.48c-1.5-0.38-1.62,0.67-1.74,1.72C44.14,111.94,44,112.62,43.89,113.31z M39.1,101.77
	c0.02,0,0.03,0.01,0.05,0.01c-0.1,0.61-0.25,1.21-0.29,1.83c-0.1,1.4,0.53,2.47,1.87,2.8c1.34,0.33,2.26-0.51,2.63-1.71
	c0.49-1.61,0.88-3.24,0.63-4.99c-0.19-1.32-0.85-1.89-2.08-2.02c-1.24-0.13-1.86,0.61-2.2,1.63C39.44,100.1,39.3,100.94,39.1,101.77
	z M73.31,106.77c-0.32,1.78-0.16,3,0.58,4.07c0.41,0.59,1.02,0.98,1.8,0.82c0.84-0.18,1.33-0.79,1.61-1.53
	c0.24-0.63,0.03-1.21-0.73-0.9c-1.2,0.49-1.88,0.32-1.69-1.07c0.16-1.16,0.12-2.64,1.8-2.78c0.58-0.05,1.49,0.79,1.42-0.49
	c-0.04-0.83-0.85-1.21-1.76-1.1C74.28,104.04,73.58,105.5,73.31,106.77z M67.28,103.28c1.05,0.85,1.19,1.79,0.89,2.94
	c-0.27,1.04-0.37,2.13-0.53,3.21c-0.06,0.4-0.03,0.79,0.45,0.92c0.59,0.16,0.86-0.17,0.96-0.69c0.13-0.68,0.23-1.37,0.36-2.06
	c0.26-1.42,0.02-3.09,2.32-3.65C70.07,103.13,68.79,102.95,67.28,103.28z M72.7,107.3c0.16-0.99,0.33-1.97,0.49-2.96
	c0.07-0.48,0.05-0.97-0.58-1.04c-0.61-0.07-0.77,0.38-0.85,0.85c-0.31,1.9-0.62,3.8-0.92,5.7c-0.08,0.49-0.04,0.98,0.56,1.05
	c0.59,0.07,0.77-0.38,0.85-0.87C72.4,109.12,72.55,108.21,72.7,107.3z"/>
<path class="st0" d="M47.71,100.51c0.59-2.56,2-0.8,3.04-0.52c0.62,0.17,0.86,1.77,1.88,0.19c0.39-0.61,1.29-0.01,1.15,0.95
	c-0.17,1.23-0.33,2.46-0.62,3.66c-0.31,1.27,0.24,1.79,1.38,2.16c1.29,0.42,1.1-0.75,1.38-1.24c0.68-1.21,1.17-2.52,1.73-3.79
	c0.31-0.7,0.74-1.08,1.61-0.92c0.97,0.17,0.94,0.81,1.02,1.52c0.18,1.65-0.1,3.36,0.62,4.95l-0.01-0.04
	c-0.46,0.43,0.02,1.51-1.06,1.52c-0.88,0-0.78-0.69-1.02-1.24c-0.42-0.95-1.26-1.16-2.01-0.43c-1.55,1.52-3.26,0.66-4.91,0.45
	c-0.86-0.11-0.72-0.84-0.62-1.46c0.2-1.21,0.4-2.41,0.65-3.97c-1.12,0.72-1.99,1.34-3.09,1.3c0.02-0.82-0.12-1.68,0.1-2.44
	C49.57,98.87,48.32,100.33,47.71,100.51z"/>
<path class="st0" d="M59.01,118c-0.78,0.95-1.46,1.82-2.77,1.31c-1.26-0.49-1.65-1.5-1.76-2.75c-0.12-1.37,0.23-2.62,0.93-3.76
	c0.6-0.98,1.51-1.58,2.72-1.41c0.58,0.08,1.35,0.23,1.28,1.03c-0.06,0.68-0.72,0.59-1.27,0.66c-1.84,0.24-2.97,2.28-2.22,3.91
	c0.21,0.45,0.5,0.85,1.03,0.72c0.55-0.13,0.68-0.63,0.5-1.1c-0.27-0.71-0.59-1.38,0.58-1.47c0.83-0.06,1.36,0.25,1.27,1.19
	c-0.07,0.73,0.47,0.8,0.97,1.05c0.81,0.4,1.54,1.95,2.41,0.81c0.7-0.91-0.8-1.4-1.44-1.95c-1.22-1.06-1.42-2.29-0.38-3.43
	c1-1.1,2.23-0.85,3.27,0.13c0.19,0.18,0.31,0.54,0.28,0.8c-0.04,0.41-0.45,0.34-0.74,0.35c-0.62,0.03-1.49-0.75-1.81,0.22
	c-0.29,0.87,0.68,1.28,1.26,1.75c1.08,0.88,1.71,1.91,0.8,3.19c-0.83,1.17-2.03,1.3-3.3,0.72C59.86,119.62,59.63,118.82,59.01,118z"
	/>
<path class="st0" d="M53.63,117.34c-0.03,0.5,0,0.97-0.45,1.08c-0.45,0.11-0.95,0.03-1.14-0.53c-0.57-1.68-1.41-1.92-2.55-0.48
	c-0.28,0.35-0.61,0.48-1,0.27c-0.5-0.26-0.24-0.63-0.08-0.98c0.82-1.83,1.67-3.66,2.47-5.51c0.32-0.73,0.87-0.78,1.52-0.68
	c0.68,0.1,0.84,0.55,0.87,1.15C53.38,113.6,53.51,115.53,53.63,117.34z"/>
<path class="st0" d="M43.89,113.31c0.11-0.69,0.25-1.37,0.33-2.06c0.13-1.05,0.24-2.09,1.74-1.72c1.29,0.32,2.49,0.82,1.98,2.48
	c-0.27,0.87-0.09,1.63-0.01,2.47c0.14,1.45-0.31,2.59-2.02,2.81c-2.01,0.26-2.62-0.35-2.31-2.38
	C43.7,114.37,43.79,113.84,43.89,113.31C43.88,113.3,43.89,113.31,43.89,113.31z M46.1,113.65c-0.84-0.07-0.78,0.61-0.84,1.09
	c-0.07,0.53-0.49,1.33,0.54,1.41c0.6,0.05,1-0.36,1.08-0.98C46.97,114.49,46.74,113.96,46.1,113.65z"/>
<path class="st0" d="M60.91,107.47c0.77-0.92,1.36-0.64,2.05,0.18c0.4,0.47,1.16,0.72,1.61,0.1c0.42-0.58-0.22-0.93-0.63-1.27
	c-0.47-0.4-1-0.76-1.37-1.24c-0.67-0.89-0.71-1.88,0.05-2.76c0.76-0.87,1.71-0.96,2.72-0.47c0.58,0.28,1.25,0.69,1.05,1.34
	c-0.19,0.62-0.89,0.37-1.41,0.18c-0.45-0.16-0.93-0.28-1.18,0.29c-0.22,0.52,0.12,0.87,0.46,1.2c0.22,0.21,0.46,0.41,0.71,0.6
	c0.83,0.64,1.54,1.37,1.18,2.53c-0.3,0.97-1.02,1.55-2.03,1.66c-1.17,0.12-2.12-0.3-2.69-1.39c-0.17-0.33-0.36-0.65-0.55-0.97
	C60.89,107.44,60.91,107.47,60.91,107.47z"/>
<path class="st0" d="M39.1,101.77c0.2-0.82,0.34-1.67,0.6-2.47c0.34-1.02,0.96-1.76,2.2-1.63c1.23,0.13,1.89,0.71,2.08,2.02
	c0.25,1.75-0.15,3.38-0.63,4.99c-0.36,1.2-1.29,2.05-2.63,1.71c-1.34-0.33-1.97-1.4-1.87-2.8c0.04-0.61,0.19-1.22,0.29-1.83
	C39.14,101.78,39.12,101.77,39.1,101.77z M40.25,101.79c0.02,1.16-0.54,2.75,0.88,3.02c1.27,0.24,0.89-1.52,1.4-2.3
	c0.04-0.06,0.12-0.14,0.11-0.2c-0.24-1.04,0.79-2.74-0.68-3.01C40.5,99.03,40.72,100.88,40.25,101.79z"/>
<path class="st0" d="M73.31,106.77c0.27-1.27,0.97-2.73,3.05-2.98c0.91-0.11,1.72,0.27,1.76,1.1c0.06,1.28-0.84,0.44-1.42,0.49
	c-1.68,0.14-1.65,1.61-1.8,2.78c-0.19,1.39,0.49,1.56,1.69,1.07c0.75-0.31,0.97,0.28,0.73,0.9c-0.29,0.74-0.77,1.36-1.61,1.53
	c-0.78,0.16-1.39-0.23-1.8-0.82C73.15,109.77,73,108.56,73.31,106.77z"/>
<path class="st0" d="M38.04,103.72c-0.09,0.56,0.14,1.34-0.79,1.38c-0.67,0.03-0.83-0.55-1.06-1.04c-0.31-0.66-0.17-1.53-0.91-2.02
	c-0.91,0.59-0.19,2.62-1.22,2.3c-1.22-0.38-0.06-1.83-0.02-2.81c0.04-1.14,0.34-2.28,0.56-3.41c0.07-0.35,0.05-0.82,0.57-0.86
	c0.49-0.04,0.58,0.41,0.74,0.74c0.54,1.07,0.37,2.47,1.52,3.25C38.22,101.92,37.16,103.06,38.04,103.72z"/>
<path class="st0" d="M67.28,103.28c1.51-0.33,2.79-0.16,4.45,0.66c-2.3,0.57-2.06,2.24-2.32,3.65c-0.13,0.69-0.22,1.38-0.36,2.06
	c-0.1,0.52-0.38,0.85-0.96,0.69c-0.48-0.13-0.51-0.53-0.45-0.92c0.16-1.07,0.26-2.16,0.53-3.21
	C68.47,105.07,68.33,104.13,67.28,103.28z"/>
<path class="st0" d="M72.7,107.3c-0.15,0.91-0.3,1.82-0.45,2.73c-0.08,0.49-0.26,0.94-0.85,0.87c-0.61-0.08-0.64-0.56-0.56-1.05
	c0.3-1.9,0.61-3.8,0.92-5.7c0.08-0.48,0.24-0.93,0.85-0.85c0.63,0.08,0.65,0.56,0.58,1.04C73.04,105.33,72.87,106.31,72.7,107.3z"/>
<path class="st0" d="M47.71,100.51c0.61-0.18,1.85-1.64,1.22,0.65c-0.21,0.76-0.07,1.62-0.1,2.44c0,0,0,0,0,0
	c-0.49,0.16-0.61,0.44-0.29,0.87c-0.1,0.61-0.2,1.23-0.29,1.84c-1.52,0.02-0.86-1.29-1.21-1.99
	C47.11,103.02,47.26,101.74,47.71,100.51z"/>
<path class="st0" d="M38.04,103.72c-0.88-0.66,0.18-1.8-0.62-2.48c0.23-1.21,0.12-2.51,1.17-4.16
	C39.03,99.78,38.32,101.74,38.04,103.72z"/>
<path class="st0" d="M47.04,104.32c0.34,0.7-0.32,2.01,1.21,1.99c-0.05,0.8-0.58,0.75-1.11,0.59c-0.4-0.12-0.59-0.46-0.51-0.87
	C46.74,105.46,46.9,104.89,47.04,104.32z"/>
<path class="st5" d="M48.54,104.47c-0.31-0.43-0.2-0.71,0.29-0.87C48.73,103.89,48.64,104.18,48.54,104.47z"/>
<path class="st2" d="M46.1,113.65c0.65,0.31,0.87,0.84,0.78,1.52c-0.08,0.62-0.48,1.02-1.08,0.98c-1.03-0.08-0.61-0.87-0.54-1.41
	C45.32,114.25,45.26,113.57,46.1,113.65z"/>
<path class="st2" d="M40.25,101.79c0.46-0.92,0.25-2.76,1.71-2.49c1.47,0.27,0.44,1.98,0.68,3.01c0.01,0.06-0.07,0.14-0.11,0.2
	c-0.51,0.78-0.13,2.54-1.4,2.3C39.71,104.55,40.27,102.95,40.25,101.79z"/>
</svg>
